<?xml version="1.0" standalone="no"?>
<!DOCTYPE svg PUBLIC "-//W3C//DTD SVG 20010904//EN"
 "http://www.w3.org/TR/2001/REC-SVG-20010904/DTD/svg10.dtd">
<svg version="1.0" xmlns="http://www.w3.org/2000/svg"
 width="112.000000pt" height="112.000000pt" viewBox="0 0 112.000000 112.000000"
 preserveAspectRatio="xMidYMid meet">
<metadata>
Created by potrace 1.14, written by Peter Selinger 2001-2017
</metadata>
<g transform="translate(0.000000,112.000000) scale(0.100000,-0.100000)"
fill="#000000" stroke="none">
<path d="M478 1114 c-2 -1 -16 -5 -33 -8 -69 -12 -87 -17 -128 -38 -61 -31
-147 -99 -190 -149 -33 -40 -96 -153 -101 -182 -1 -7 -4 -16 -7 -22 -14 -27
-20 -218 -8 -286 16 -92 120 -249 207 -312 48 -35 172 -101 172 -92 0 3 15 -1
33 -8 49 -20 181 -21 265 -2 114 26 233 99 305 187 32 39 96 154 101 182 2 6
8 38 15 71 16 71 9 220 -14 280 -51 139 -150 255 -278 325 -59 32 -66 34 -157
51 -47 8 -175 11 -182 3z m-371 -416 c-3 -8 -6 -5 -6 6 -1 11 2 17 5 13 3 -3
4 -12 1 -19z"/>
</g>
</svg>
