<svg xmlns="http://www.w3.org/2000/svg" enable-background="new 0 0 3000 3000" viewBox="0 0 3000 3000"><path fill="#ffa726" d="M411.5,1437.3v-176.6H25v-147.3l409.7-557.4h152v556.8h117.2v147.9H586.7v176.6H411.5z M411.5,1112.7v-300
			l-217.1,300H411.5z"/><path fill="#ffa726" d="M1096.2,555.9c91.5,0,163,30.3,214.5,91c61.4,71.9,92.1,191,92.1,357.5c0,166.1-30.9,285.4-92.8,358.1
			c-51.1,59.9-122.4,89.8-213.9,89.8c-91.9,0-166-32.8-222.2-98.5c-56.3-65.7-84.4-182.7-84.4-351.2c0-165.3,30.9-284.2,92.8-356.9
			C933.4,585.8,1004.7,555.9,1096.2,555.9z M1096.2,695.4c-21.9,0-41.4,6.5-58.6,19.5c-17.2,13-30.5,36.2-39.9,69.8
			c-12.5,43.5-18.7,116.8-18.7,219.7c0,103,5.6,173.7,16.7,212.3c11.2,38.5,25.2,64.2,42.2,76.9c17,12.8,36.4,19.2,58.3,19.2
			c21.9,0,41.4-6.5,58.6-19.5c17.2-13,30.5-36.2,39.9-69.8c12.5-43.1,18.7-116.2,18.7-219.1c0-103-5.6-173.7-16.7-212.3
			c-11.2-38.5-25.2-64.3-42.2-77.2C1137.5,701.9,1118.1,695.4,1096.2,695.4z"/><path fill="#ffa726" d="M1878.8,1437.3v-176.6h-386.5v-147.3L1902,555.9h152v556.8h117.2v147.9H2054v176.6H1878.8z M1878.8,1112.7
			v-300l-217.1,300H1878.8z"/><ellipse cx="2225.6" cy="2407.7" fill="#eee" rx="749.4" ry="36.4"/><path fill="#f7c19b" d="M2707,1546.2c17.5,29.8,33.3,26.9,47.6-7.1l1-34.3l-45.6,3L2707,1546.2z"/><path fill="#f7c19b" d="M2675.7,1453.2c0,0-7.9,48.2,11.5,71.6c10,12.1,27.7,14.4,40.8,5.8c10-6.6,24.4-18.3,34.1-36.3
				c0.8-1.6-9.6-42-9.6-42l-12.3-12.3l-38.3,1.6L2675.7,1453.2z"/><path fill="#333" d="M2721.8,1483.7l2.9-16.9c0,0-4.6,2.8-10.4,4.7c-8.4,2.9-17.6-1.7-20.4-10.2l-0.7-2.1c0,0-36.3,4.5-31-28.7
				c1.3-8.4,7.6-15.3,15.9-17.1c7.4-1.6,18.3-1.5,34.2,3.6c5.9,1.9,12.5,0.1,17.8-3.1c5.8-3.5,15.5-4.9,25.2,12.5
				c1.7,3,3.8,5.8,6.4,8.1c7.2,6.4,23.9,38.5-6.1,79.1c-1.3,1.7-4.1,0.7-3.9-1.4c1-13.4,1.4-40.3-11.7-38.3
				c-3.2,0.5-5.8,2.6-7.3,5.4l-3.6,6.9c-1,1.9-3.3,2.7-5.2,1.7l0,0C2722.4,1487.2,2721.5,1485.4,2721.8,1483.7z"/><path fill="#f7c19b" d="M2459.4,1672l-14.3-9.5c-2.3-1.5-3.8-3.9-4.3-6.6l-2-11.6c-0.4-2.2-2.4-3.7-4.6-3.4l0,0
				c-1.8,0.3-3.2,1.7-3.5,3.5l-1.3,10.4c-0.4,2.8-3.1,4.6-5.8,3.9l-27.2-7.3c-2.1-0.6-4.3,0.7-4.9,2.8l0,0c-0.6,2.1,0.5,4.3,2.5,5
				l14.9,5.3l-16.8-6c-2.4-0.9-5.1,0.5-5.7,3l0,0c-0.6,2.3,0.7,4.6,2.9,5.3l25,8.2l-19.9-6.7c-2.3-0.8-4.8,0.5-5.6,2.8l0,0
				c-0.7,2.3,0.6,4.8,2.9,5.5l26.9,8.4l-20.3-6.4c-2.3-0.7-4.7,0.5-5.5,2.8l0,0c-0.7,2.2,0.4,4.6,2.5,5.4
				c16.1,6.6,34.5,11.4,54.4,15.3L2459.4,1672z"/><rect width="41.6" height="63.5" x="2867" y="2299.4" fill="#f7c19b" transform="rotate(154.622 2887.79 2331.213)"/><path fill="#333" d="M2918.7,2366.3l8.4,6l2.4,2.1c1.4,1.2,2.4,2.8,2.9,4.5l2,6.8c0.5,1.7-0.5,3.5-2.2,4l-7.5,2.2l-0.6-1.9
						l-4.1,1.2l0.6,1.9l-9,2.9l-0.5-1.6l-4.3,1.3l0.5,1.7l-10.2,2.9l-7.2-5.1c-7.4,4.7-13.9,9.8-19,15.2c-0.2,0.3-10.5,3.4-10.6,3.1
						l-0.5-1.5l-4,1.2l0.4,1.5c-3.2,1.2-6.5,2.2-9.8,2.9l-0.5-1.6l-3.9,1.2l0.4,1.3c-3.4,1-6.6,1.5-9.4,1.5l-0.4-1.3l-4.1,0.7
						l0.3,1.1c-2.4,0.4-4.7,0.4-7,0.1l-0.2-1.3l-3.9-0.4l-0.3,1.5c-4.2-0.4-8.2-1-11.7-1.9c0,0-2.2-5,1-6.2l40-16.7l50.9-22.9
						L2918.7,2366.3z"/><path fill="#58595b" d="M2925.3,2360.3c0.7,2.5,1.2,5.2,1.4,7.8l0.3,4.2c-16,4.4-30.5,9.9-42.7,17.2c-2.5,1.5-5,3.1-7.3,4.7
						c-20.1,14.3-43.6,19.9-70.1,17.9l-1.1-3.7c-0.8-2.8,0.4-5.7,3-7l16.7-8.8c3-1.6,6-3,9-4.6c8.4-4.3,15.6-10.2,21.7-17.6
						c0.3-0.4,0.7-0.8,1-1.2c0.2-0.2,0.4-0.5,0.6-0.7c1.6,3.7,6.7,7.4,7,7.6c0.2,0.1,0.4,0.1,0.5,0.1c0.1,0,0.2-0.1,0.2-0.2
						c0.2-0.2,0.1-0.6-0.1-0.7c-1.8-1.3-5.9-4.8-6.9-7.7c0.1-0.2,0.3-0.4,0.4-0.5c2.9-1.8,8.4-2.1,10.8-2c0.3,0,0.5-0.2,0.5-0.5
						c0-0.3-0.2-0.5-0.5-0.5c-0.3,0-5.7-0.1-9.6,1.3c0.5-0.7,0.9-1.4,1.4-2.1c0.3-0.4,0.6-0.9,0.9-1.3c0.6-1,1.2-1.9,1.8-2.9
						c0.2-0.4,0.5-0.8,0.7-1.2c0.8-1.5,1.7-3,2.5-4.6c2.6-0.5,6.3,0.3,7.8,0.7c0.3,0.1,0.6-0.1,0.6-0.3c0.1-0.3-0.1-0.6-0.3-0.6
						c-0.2-0.1-4.3-1.3-7.6-0.9c0.3-0.6,0.6-1.3,0.9-1.9c0.5-1.1,1.4-1.9,2.5-2.3l40.8-13.7c1.5-0.5,3.1,0.4,3.5,1.9l1.3,4.9
						c0.9,3.6,2.4,7.1,4.4,10.3C2923,2354,2924.4,2357.1,2925.3,2360.3z"/><path fill="#231f20" d="M2865.4,2375.8c-0.1,0.1-0.1,0.1-0.2,0.2c-0.2,0.1-0.4,0.1-0.5-0.1c-0.3-0.2-5.4-3.9-7-7.6
						c0.2-0.3,0.5-0.6,0.7-1c0.9,2.9,5.1,6.4,6.9,7.7C2865.5,2375.2,2865.6,2375.5,2865.4,2375.8z"/><path fill="#231f20" d="M2870.1,2364.3c0,0.3-0.2,0.5-0.5,0.5c-2.4-0.1-7.9,0.3-10.8,2c0.4-0.6,0.8-1.1,1.2-1.7
						c3.9-1.5,9.3-1.3,9.6-1.3C2869.9,2363.7,2870.1,2364,2870.1,2364.3z"/><path fill="#303030" d="M2875.7,2353.4c-0.1,0.3-0.4,0.4-0.6,0.3c-1.6-0.5-5.3-1.3-7.8-0.7c0.2-0.4,0.4-0.8,0.6-1.1
						c3.3-0.4,7.3,0.8,7.6,0.9C2875.7,2352.8,2875.8,2353.1,2875.7,2353.4z"/><path fill="#414042" d="M2925.3,2360.3c0.7,2.5,1.2,5.2,1.4,7.8l0.3,4.2c-16,4.4-30.5,9.9-42.7,17.2l-24.5-8.1
						c-1.4-0.5-2.1-2-1.5-3.4l13-30.3l40.8-13.7c1.5-0.5,3.1,0.4,3.5,1.9l1.3,4.9c0.9,3.6,2.4,7.1,4.4,10.3
						C2923,2354,2924.4,2357.1,2925.3,2360.3z"/><polygon fill="#58595b" points="2872.6 2349.3 2872.2 2349.1 2872.3 2348.7 2872.7 2348.6 2872.8 2349 2872.7 2349.1"/><path fill="#58595b" d="M2925.3,2370.3l-0.5,0l0-0.6l0.5,0L2925.3,2370.3z M2925.2,2369.1l-0.5,0l0-0.6l0.5,0L2925.2,2369.1z
									 M2925.1,2367.9l-0.5,0c0-0.2,0-0.4-0.1-0.6l0.5,0C2925.1,2367.4,2925.1,2367.6,2925.1,2367.9z M2925,2366.6l-0.5,0.1
									c0-0.2-0.1-0.4-0.1-0.6l0.5-0.1C2924.9,2366.2,2924.9,2366.4,2925,2366.6z M2924.8,2365.4l-0.5,0.1c0-0.2-0.1-0.4-0.1-0.6
									l0.5-0.1C2924.7,2365,2924.8,2365.2,2924.8,2365.4z M2924.6,2364.1l-0.5,0.1c0-0.2-0.1-0.4-0.1-0.6l0.5-0.1
									C2924.5,2363.7,2924.6,2363.9,2924.6,2364.1z M2924.3,2362.9l-0.5,0.1c0-0.2-0.1-0.4-0.1-0.6l0.5-0.1
									C2924.3,2362.5,2924.3,2362.7,2924.3,2362.9z M2924.1,2361.7l-0.4,0.1c-0.1-0.2-0.1-0.4-0.2-0.6l0.4-0.1
									C2923.9,2361.3,2924,2361.5,2924.1,2361.7z M2923.3,2360.6c-0.1-0.2-0.1-0.4-0.2-0.6l0.4-0.1c0.1,0.2,0.1,0.4,0.2,0.6
									L2923.3,2360.6z M2922.9,2359.5c-0.1-0.2-0.1-0.4-0.2-0.6l0.4-0.2c0.1,0.2,0.1,0.4,0.2,0.6L2922.9,2359.5z M2922.5,2358.3
									c-0.1-0.2-0.1-0.4-0.2-0.6l0.4-0.2c0.1,0.2,0.2,0.4,0.2,0.6L2922.5,2358.3z M2922,2357.1c-0.1-0.2-0.2-0.4-0.2-0.6l0.4-0.2
									c0.1,0.2,0.2,0.4,0.2,0.6L2922,2357.1z M2921.5,2356c-0.1-0.2-0.2-0.4-0.3-0.6l0.4-0.2c0.1,0.2,0.2,0.4,0.3,0.6L2921.5,2356
									z M2921,2354.9c-0.1-0.2-0.2-0.4-0.3-0.5l0.4-0.2c0.1,0.2,0.2,0.4,0.3,0.6L2921,2354.9z M2920.4,2353.8
									c-0.1-0.2-0.2-0.4-0.3-0.5l0.4-0.2c0.1,0.2,0.2,0.4,0.3,0.5L2920.4,2353.8z M2919.8,2352.7c-0.1-0.2-0.2-0.4-0.3-0.5
									l0.4-0.2c0.1,0.2,0.2,0.4,0.3,0.5L2919.8,2352.7z M2919.2,2351.7c-0.1-0.2-0.2-0.4-0.3-0.5l0.4-0.2c0.1,0.2,0.2,0.4,0.3,0.5
									L2919.2,2351.7z M2918.6,2350.6c-0.1-0.2-0.2-0.4-0.3-0.5l0.4-0.2c0.1,0.2,0.2,0.4,0.3,0.5L2918.6,2350.6z M2918,2349.5
									c-0.1-0.2-0.2-0.4-0.3-0.6l0.4-0.2c0.1,0.2,0.2,0.4,0.3,0.6L2918,2349.5z M2917.4,2348.4c-0.1-0.2-0.2-0.4-0.3-0.6l0.4-0.2
									c0.1,0.2,0.2,0.4,0.3,0.6L2917.4,2348.4z M2916.9,2347.2c-0.1-0.2-0.2-0.4-0.2-0.6l0.4-0.2c0.1,0.2,0.2,0.4,0.2,0.6
									L2916.9,2347.2z M2916.4,2346.1c-0.1-0.2-0.2-0.4-0.2-0.6l0.4-0.2c0.1,0.2,0.1,0.4,0.2,0.6L2916.4,2346.1z M2916,2344.9
									c-0.1-0.2-0.1-0.4-0.2-0.6l0.4-0.1c0.1,0.2,0.1,0.4,0.2,0.6L2916,2344.9z M2915.6,2343.7c-0.1-0.2-0.1-0.4-0.2-0.6l0.4-0.1
									c0.1,0.2,0.1,0.4,0.2,0.6L2915.6,2343.7z M2915.6,2342.4l-0.4,0.1c-0.1-0.2-0.1-0.4-0.2-0.6l0.4-0.1
									C2915.5,2342,2915.6,2342.2,2915.6,2342.4z M2915.3,2341.2l-0.4,0.1l-0.2-0.6l0.4-0.1L2915.3,2341.2z M2915,2340l-0.4,0.1
									l-0.2-0.6l0.4-0.1L2915,2340z M2914.7,2338.8l-0.4,0.1l-0.2-0.6l0.4-0.1L2914.7,2338.8z M2914.4,2337.6l-0.4,0.1l-0.2-0.6
									l0.4-0.1L2914.4,2337.6z M2873.4,2348.9l-0.1-0.4l0.6-0.2l0.1,0.4L2873.4,2348.9z M2874.6,2348.5l-0.1-0.4l0.6-0.2l0.1,0.4
									L2874.6,2348.5z M2875.8,2348.1l-0.1-0.4l0.6-0.2l0.1,0.4L2875.8,2348.1z M2877,2347.7l-0.1-0.4l0.6-0.2l0.1,0.4
									L2877,2347.7z M2878.2,2347.3l-0.1-0.4l0.6-0.2l0.1,0.4L2878.2,2347.3z M2879.3,2346.9l-0.1-0.4l0.6-0.2l0.1,0.4
									L2879.3,2346.9z M2880.5,2346.5l-0.1-0.4l0.6-0.2l0.1,0.4L2880.5,2346.5z M2881.7,2346.1l-0.1-0.4l0.6-0.2l0.1,0.4
									L2881.7,2346.1z M2882.9,2345.7l-0.1-0.4l0.6-0.2l0.1,0.4L2882.9,2345.7z M2884.1,2345.3l-0.2-0.4l0.6-0.2l0.1,0.4
									L2884.1,2345.3z M2913.6,2336.6c-0.1-0.2-0.2-0.3-0.3-0.4l0.3-0.3c0.2,0.2,0.3,0.4,0.4,0.6L2913.6,2336.6z M2885.2,2344.9
									l-0.1-0.4l0.6-0.2l0.1,0.4L2885.2,2344.9z M2886.4,2344.5l-0.1-0.4l0.6-0.2l0.1,0.4L2886.4,2344.5z M2887.6,2344.1l-0.2-0.4
									l0.6-0.2l0.1,0.4L2887.6,2344.1z M2888.8,2343.7l-0.2-0.4l0.6-0.2l0.1,0.4L2888.8,2343.7z M2890,2343.3l-0.2-0.4l0.6-0.2
									l0.1,0.4L2890,2343.3z M2891.1,2342.9l-0.2-0.4l0.6-0.2l0.1,0.4L2891.1,2342.9z M2892.3,2342.5l-0.1-0.4l0.6-0.2l0.1,0.4
									L2892.3,2342.5z M2893.5,2342.1l-0.1-0.4l0.6-0.2l0.1,0.4L2893.5,2342.1z M2894.7,2341.7l-0.1-0.4l0.6-0.2l0.1,0.4
									L2894.7,2341.7z M2895.8,2341.3l-0.1-0.4l0.6-0.2l0.1,0.4L2895.8,2341.3z M2897,2341l-0.1-0.4l0.6-0.2l0.1,0.4L2897,2341z
									 M2898.2,2340.6l-0.1-0.4l0.6-0.2l0.1,0.4L2898.2,2340.6z M2899.4,2340.2l-0.1-0.4l0.6-0.2l0.1,0.4L2899.4,2340.2z
									 M2900.6,2339.8l-0.1-0.4l0.6-0.2l0.1,0.4L2900.6,2339.8z M2901.7,2339.4l-0.1-0.4l0.6-0.2l0.1,0.4L2901.7,2339.4z
									 M2902.9,2339l-0.1-0.4l0.6-0.2l0.1,0.4L2902.9,2339z M2904.1,2338.6l-0.1-0.4l0.6-0.2l0.1,0.4L2904.1,2338.6z
									 M2905.3,2338.2l-0.1-0.4l0.6-0.2l0.1,0.4L2905.3,2338.2z M2906.5,2337.8l-0.1-0.4l0.6-0.2l0.1,0.4L2906.5,2337.8z
									 M2912.9,2335.9c-0.2,0-0.3-0.1-0.5,0l-0.1-0.5c0.2,0,0.5,0,0.7,0.1L2912.9,2335.9z M2907.6,2337.4l-0.1-0.4l0.6-0.2
									l0.1,0.4L2907.6,2337.4z M2908.8,2337l-0.1-0.4l0.6-0.2l0.1,0.4L2908.8,2337z M2910,2336.6l-0.1-0.4l0.6-0.2l0.1,0.4
									L2910,2336.6z M2911.2,2336.2l-0.1-0.4l0.6-0.2l0.1,0.4L2911.2,2336.2z"/><polygon fill="#58595b" points="2925.4 2371.4 2924.9 2371.5 2924.8 2371.1 2924.9 2371 2924.9 2370.9 2925.3 2370.9"/><path fill="#58595b" d="M2885.2,2387.4l-0.2-0.4l0.5-0.3l0.2,0.4L2885.2,2387.4z M2886.3,2386.8l-0.2-0.4l0.5-0.3l0.2,0.4
									L2886.3,2386.8z M2887.4,2386.2l-0.2-0.4l0.5-0.3l0.2,0.4L2887.4,2386.2z M2888.4,2385.6l-0.2-0.4l0.5-0.3l0.2,0.4
									L2888.4,2385.6z M2889.5,2385.1l-0.2-0.4l0.5-0.3l0.2,0.4L2889.5,2385.1z M2890.6,2384.5l-0.2-0.4l0.5-0.3l0.2,0.4
									L2890.6,2384.5z M2891.7,2383.9l-0.2-0.4l0.5-0.3l0.2,0.4L2891.7,2383.9z M2892.8,2383.4l-0.2-0.4l0.6-0.3l0.2,0.4
									L2892.8,2383.4z M2893.9,2382.9l-0.2-0.4l0.6-0.3l0.2,0.4L2893.9,2382.9z M2895,2382.3l-0.2-0.4l0.6-0.3l0.2,0.4
									L2895,2382.3z M2896.1,2381.8l-0.2-0.4l0.6-0.3l0.2,0.4L2896.1,2381.8z M2897.2,2381.3l-0.2-0.4l0.6-0.3l0.2,0.4
									L2897.2,2381.3z M2898.3,2380.8l-0.2-0.4l0.6-0.2l0.2,0.4L2898.3,2380.8z M2899.5,2380.3l-0.2-0.4l0.6-0.2l0.2,0.4
									L2899.5,2380.3z M2900.6,2379.9l-0.2-0.4l0.6-0.2l0.2,0.4L2900.6,2379.9z M2901.7,2379.4l-0.2-0.4l0.6-0.2l0.2,0.4
									L2901.7,2379.4z M2902.8,2378.9l-0.2-0.4l0.6-0.2l0.2,0.4L2902.8,2378.9z M2904,2378.5l-0.2-0.4l0.6-0.2l0.2,0.4
									L2904,2378.5z M2905.1,2378l-0.2-0.4l0.6-0.2l0.2,0.4L2905.1,2378z M2906.3,2377.6l-0.2-0.4l0.6-0.2l0.2,0.4L2906.3,2377.6z
									 M2907.4,2377.2l-0.2-0.4l0.6-0.2l0.2,0.4L2907.4,2377.2z M2908.6,2376.7l-0.2-0.4l0.6-0.2l0.2,0.4L2908.6,2376.7z
									 M2909.7,2376.3l-0.2-0.4l0.6-0.2l0.2,0.4L2909.7,2376.3z M2910.9,2375.9l-0.2-0.4l0.6-0.2l0.2,0.4L2910.9,2375.9z
									 M2912,2375.5l-0.2-0.4l0.6-0.2l0.1,0.4L2912,2375.5z M2913.2,2375.1l-0.1-0.4l0.6-0.2l0.1,0.4L2913.2,2375.1z
									 M2914.3,2374.7l-0.1-0.4l0.6-0.2l0.1,0.4L2914.3,2374.7z M2915.5,2374.3l-0.1-0.4l0.6-0.2l0.1,0.4L2915.5,2374.3z
									 M2916.7,2374l-0.1-0.4l0.6-0.2l0.1,0.4L2916.7,2374z M2917.8,2373.6l-0.1-0.4l0.6-0.2l0.1,0.4L2917.8,2373.6z M2919,2373.2
									l-0.1-0.4l0.6-0.2l0.1,0.4L2919,2373.2z M2924.3,2371.7l-0.6,0.2l-0.1-0.4l0.6-0.2L2924.3,2371.7z M2920.2,2372.9l-0.1-0.4
									l0.6-0.2l0.1,0.4L2920.2,2372.9z M2923.1,2372l-0.6,0.2l-0.1-0.4l0.6-0.2L2923.1,2372z M2921.3,2372.5l-0.1-0.4l0.6-0.2
									l0.1,0.4L2921.3,2372.5z"/><polygon fill="#58595b" points="2884.3 2387.9 2883.9 2387.8 2884.1 2387.4 2884.3 2387.4 2884.5 2387.3 2884.7 2387.7"/><path fill="#58595b" d="M2883.4,2387.6l-0.6-0.2l0.1-0.4l0.6,0.2L2883.4,2387.6z M2882.2,2387.2l-0.6-0.2l0.1-0.4l0.6,0.2
									L2882.2,2387.2z M2881,2386.8l-0.6-0.2l0.1-0.4l0.6,0.2L2881,2386.8z M2879.9,2386.4l-0.6-0.2l0.1-0.4l0.6,0.2
									L2879.9,2386.4z M2878.7,2386.1l-0.6-0.2l0.1-0.4l0.6,0.2L2878.7,2386.1z M2877.5,2385.7l-0.6-0.2l0.1-0.4l0.6,0.2
									L2877.5,2385.7z M2876.4,2385.3l-0.6-0.2l0.1-0.4l0.6,0.2L2876.4,2385.3z M2875.2,2384.9l-0.6-0.2l0.1-0.4l0.6,0.2
									L2875.2,2384.9z M2874.1,2384.5l-0.6-0.2l0.1-0.4l0.6,0.2L2874.1,2384.5z M2872.9,2384.1l-0.6-0.2l0.1-0.4l0.6,0.2
									L2872.9,2384.1z M2871.7,2383.8l-0.6-0.2l0.1-0.4l0.6,0.2L2871.7,2383.8z M2870.6,2383.4l-0.6-0.2l0.1-0.4l0.6,0.2
									L2870.6,2383.4z M2869.4,2383l-0.6-0.2l0.1-0.4l0.6,0.2L2869.4,2383z M2868.2,2382.6l-0.6-0.2l0.1-0.4l0.6,0.2
									L2868.2,2382.6z M2867.1,2382.2l-0.6-0.2l0.1-0.4l0.6,0.2L2867.1,2382.2z M2865.9,2381.9l-0.6-0.2l0.1-0.4l0.6,0.2
									L2865.9,2381.9z M2864.8,2381.5l-0.6-0.2l0.1-0.4l0.6,0.2L2864.8,2381.5z M2863.6,2381.1l-0.6-0.2l0.1-0.4l0.6,0.2
									L2863.6,2381.1z M2862.4,2380.7l-0.6-0.2l0.1-0.4l0.6,0.2L2862.4,2380.7z M2861.3,2380.3l-0.6-0.2l0.1-0.4l0.6,0.2
									L2861.3,2380.3z M2860.1,2379.8c-0.1-0.1-0.2-0.3-0.3-0.5c0,0,0-0.1-0.1-0.1l0.4-0.1c0,0,0,0.1,0,0.1
									c0.1,0.1,0.1,0.2,0.2,0.3L2860.1,2379.8z M2860.1,2378.5l-0.5-0.1c0-0.1,0.1-0.2,0.1-0.4l0.1-0.3l0.4,0.2l-0.1,0.3
									C2860.1,2378.3,2860.1,2378.4,2860.1,2378.5z M2860.5,2377.4l-0.4-0.2l0.2-0.6l0.4,0.2L2860.5,2377.4z M2861,2376.3
									l-0.4-0.2l0.2-0.6l0.4,0.2L2861,2376.3z M2861.5,2375.2l-0.4-0.2l0.2-0.6l0.4,0.2L2861.5,2375.2z M2862,2374.1l-0.4-0.2
									l0.2-0.6l0.4,0.2L2862,2374.1z M2862.4,2372.9l-0.4-0.2l0.2-0.6l0.4,0.2L2862.4,2372.9z M2862.9,2371.8l-0.4-0.2l0.2-0.6
									l0.4,0.2L2862.9,2371.8z M2863.4,2370.7l-0.4-0.2l0.2-0.6l0.4,0.2L2863.4,2370.7z M2863.9,2369.6l-0.4-0.2l0.2-0.6l0.4,0.2
									L2863.9,2369.6z M2864.4,2368.4l-0.4-0.2l0.2-0.6l0.4,0.2L2864.4,2368.4z M2864.9,2367.3l-0.4-0.2l0.2-0.6l0.4,0.2
									L2864.9,2367.3z M2865.3,2366.2l-0.4-0.2l0.2-0.6l0.4,0.2L2865.3,2366.2z M2865.8,2365.1l-0.4-0.2l0.2-0.6l0.4,0.2
									L2865.8,2365.1z M2866.3,2363.9l-0.4-0.2l0.2-0.6l0.4,0.2L2866.3,2363.9z M2866.8,2362.8l-0.4-0.2l0.2-0.6l0.4,0.2
									L2866.8,2362.8z M2867.3,2361.7l-0.4-0.2l0.2-0.6l0.4,0.2L2867.3,2361.7z M2867.8,2360.6l-0.4-0.2l0.2-0.6l0.4,0.2
									L2867.8,2360.6z M2868.2,2359.4l-0.4-0.2l0.2-0.6l0.4,0.2L2868.2,2359.4z M2868.7,2358.3l-0.4-0.2l0.2-0.6l0.4,0.2
									L2868.7,2358.3z M2869.2,2357.2l-0.4-0.2l0.2-0.6l0.4,0.2L2869.2,2357.2z M2869.7,2356.1l-0.4-0.2l0.2-0.6l0.4,0.2
									L2869.7,2356.1z M2870.2,2354.9l-0.4-0.2l0.2-0.6l0.4,0.2L2870.2,2354.9z M2870.6,2353.8l-0.4-0.2l0.2-0.6l0.4,0.2
									L2870.6,2353.8z M2871.1,2352.7l-0.4-0.2l0.2-0.6l0.4,0.2L2871.1,2352.7z M2871.6,2351.6l-0.4-0.2l0.2-0.6l0.4,0.2
									L2871.6,2351.6z M2872.1,2350.4l-0.4-0.2l0.2-0.6l0.4,0.2L2872.1,2350.4z"/><path fill="#e6e7e8" d="M2866.1,2377.6c-1.2,0.5-2.6,0-3.1-1.2c-0.5-1.2,0-2.6,1.2-3.1c1.2-0.5,2.6,0,3.1,1.2
									C2867.8,2375.6,2867.3,2377,2866.1,2377.6z M2864.5,2373.9c-0.8,0.4-1.2,1.3-0.9,2.2c0.4,0.8,1.3,1.2,2.2,0.9
									c0.8-0.4,1.2-1.3,0.9-2.2C2866.3,2373.9,2865.3,2373.5,2864.5,2373.9z"/><path fill="#e6e7e8" d="M2871.2,2366.7c-1.2,0.5-2.6,0-3.1-1.2c-0.5-1.2,0-2.6,1.2-3.1c1.2-0.5,2.6,0,3.1,1.2
									C2872.9,2364.8,2872.4,2366.2,2871.2,2366.7z M2869.6,2363c-0.8,0.4-1.2,1.3-0.9,2.2c0.4,0.8,1.3,1.2,2.2,0.9
									c0.8-0.4,1.2-1.3,0.9-2.2C2871.4,2363,2870.4,2362.6,2869.6,2363z"/><path fill="#231f20" d="M2865.3,2375c0.2,0.2,0.3,0.5,0.1,0.7c-0.1,0.1-0.1,0.1-0.2,0.2c-0.2,0.1-0.4,0.1-0.5-0.1
									c-0.3-0.2-5.4-3.9-7-7.6c-0.1-0.1-0.1-0.2-0.1-0.3c-0.2-0.4-0.3-0.8-0.3-1.2c-0.1-0.5,0-0.9,0.1-1.3c0.4-1.7,2.1-3,5-3.7
									c-0.3,0.5-0.6,0.9-0.9,1.3c-1.8,0.6-2.9,1.5-3.2,2.6c0,0.1,0,0.2,0,0.3c0,0.4,0,0.8,0.1,1.2c0,0.1,0,0.2,0.1,0.2
									C2859.3,2370.3,2863.4,2373.7,2865.3,2375z"/><path fill="#231f20" d="M2870.1,2364.3c0,0.3-0.2,0.5-0.5,0.5c-2.4-0.1-7.9,0.3-10.8,2c-0.2,0.1-0.3,0.2-0.5,0.3
									c-0.3,0.3-0.6,0.5-0.8,0.8c-0.1,0.1-0.2,0.3-0.2,0.4c-0.1,0.2-0.2,0.4-0.2,0.7c-0.3,0.4-0.7,0.8-1,1.2
									c-0.2-0.8-0.1-1.6,0.3-2.3c0.2-0.4,0.5-0.8,0.9-1.2c0.3-0.3,0.6-0.6,1-0.8c0.5-0.3,1.2-0.6,1.8-0.9c3.9-1.5,9.3-1.3,9.6-1.3
									C2869.9,2363.7,2870.1,2364,2870.1,2364.3z"/><path fill="#e6e7e8" d="M2875.9,2355.5c-1.3,0.4-2.6-0.3-3-1.6c-0.4-1.3,0.3-2.6,1.6-3c1.3-0.4,2.6,0.3,3,1.6
								C2877.9,2353.8,2877.2,2355.1,2875.9,2355.5z M2874.8,2351.6c-0.9,0.3-1.4,1.2-1.1,2c0.3,0.9,1.2,1.4,2,1.1
								c0.9-0.3,1.4-1.2,1.1-2C2876.5,2351.9,2875.6,2351.4,2874.8,2351.6z"/><path fill="#231f20" d="M2875.7,2353.4c-0.1,0.3-0.4,0.4-0.6,0.3c-1.6-0.5-5.3-1.3-7.8-0.7c-0.9,0.2-1.6,0.5-2.1,1
								c-0.7,0.8-0.8,2-0.4,3.5c-0.2,0.4-0.5,0.8-0.7,1.2c-0.8-2.4-0.7-4.2,0.3-5.4c0.8-0.9,2-1.3,3.4-1.5c3.3-0.4,7.3,0.8,7.6,0.9
								C2875.7,2352.8,2875.8,2353.1,2875.7,2353.4z"/><rect width="41.2" height="63.5" x="2637" y="2315.6" fill="#f7c19b" transform="rotate(-177.811 2657.621 2347.395) scale(1.00003)"/><path fill="#333" d="M2677.2,2387.9l6.7,7.8l1.8,2.6c1.1,1.5,1.7,3.2,1.8,5.1l0.3,7.1c0.1,1.8-1.3,3.3-3,3.3l-7.9,0.4l-0.1-2
						l-4.3,0.2l0.1,2l-9.4,0.7l-0.1-1.6l-4.4,0.2l0.1,1.8l-10.6,0.5l-5.8-6.7c-8.3,2.9-15.8,6.2-22.1,10.3c-0.3,0.2-11,0.8-11,0.5
						l-0.1-1.6l-4.2,0.2l0.1,1.6c-3.4,0.4-6.8,0.6-10.2,0.5l-0.1-1.7l-4.1,0.2l0.1,1.4c-3.6,0.2-6.8-0.1-9.5-0.7l-0.1-1.3l-4.1-0.3
						l0.1,1.2c-2.4-0.2-4.7-0.8-6.8-1.5l0.1-1.3l-3.7-1.3l-0.7,1.3c-4-1.4-7.7-2.9-10.9-4.6c0,0-0.9-5.4,2.4-5.8l42.8-6.8l54.9-10.2
						L2677.2,2387.9z"/><path fill="#58595b" d="M2685,2383.7c0.1,2.6,0,5.3-0.5,7.9l-0.7,4.1c-16.6,0.5-31.9,2.5-45.6,6.6c-2.8,0.9-5.6,1.8-8.2,2.9
						c-22.9,9.2-47.1,9.1-72.4,0.8l-0.2-3.9c-0.1-2.9,1.8-5.4,4.5-6.1l18.3-4.6c3.2-0.8,6.5-1.6,9.8-2.3c9.2-2.2,17.5-6.2,25.2-12
						c0.4-0.3,0.8-0.6,1.3-1c0.2-0.2,0.5-0.4,0.7-0.6c0.7,4,4.8,8.8,5,9c0.1,0.1,0.3,0.2,0.5,0.2c0.1,0,0.2-0.1,0.2-0.1
						c0.2-0.2,0.2-0.5,0.1-0.7c-1.5-1.7-4.7-6-4.9-9.1c0.2-0.1,0.4-0.3,0.5-0.4c3.2-1.1,8.7,0,11,0.6c0.3,0.1,0.6-0.1,0.6-0.4
						c0.1-0.3-0.1-0.6-0.4-0.6c-0.3-0.1-5.5-1.5-9.6-1c0.6-0.5,1.2-1.1,1.8-1.7c0.4-0.4,0.8-0.7,1.1-1.1c0.8-0.8,1.6-1.6,2.4-2.4
						c0.3-0.3,0.7-0.7,1-1c1.2-1.2,2.3-2.5,3.5-3.9c2.6,0.1,6,1.7,7.4,2.6c0.2,0.1,0.6,0.1,0.7-0.2c0.1-0.2,0.1-0.6-0.2-0.7
						c-0.2-0.1-3.9-2.3-7.2-2.7c0.5-0.5,0.9-1.1,1.3-1.6c0.7-0.9,1.8-1.5,3-1.6l42.9-3.7c1.6-0.1,2.9,1.1,3,2.7l0.1,5.1
						c0.1,3.8,0.7,7.5,1.9,11.1C2684.3,2377,2684.9,2380.3,2685,2383.7z"/><path fill="#231f20" d="M2623.2,2384.6c-0.1,0.1-0.2,0.1-0.2,0.1c-0.2,0-0.4,0-0.5-0.2c-0.2-0.2-4.3-5-5-9
						c0.3-0.3,0.6-0.5,0.9-0.8c0.2,3.1,3.4,7.4,4.9,9.1C2623.4,2384.1,2623.4,2384.4,2623.2,2384.6z"/><path fill="#231f20" d="M2630.5,2374.5c-0.1,0.3-0.4,0.4-0.6,0.4c-2.3-0.6-7.8-1.6-11-0.6c0.5-0.5,1.1-0.9,1.6-1.4
						c4.1-0.5,9.3,0.9,9.6,1C2630.4,2373.9,2630.5,2374.2,2630.5,2374.5z"/><path fill="#303030" d="M2638.5,2365.2c-0.1,0.2-0.5,0.3-0.7,0.2c-1.4-0.8-4.8-2.5-7.4-2.6c0.3-0.3,0.6-0.6,0.8-1
						c3.3,0.4,6.9,2.5,7.2,2.7C2638.6,2364.7,2638.6,2365,2638.5,2365.2z"/><path fill="#414042" d="M2685,2383.7c0.1,2.6,0,5.3-0.5,7.9l-0.7,4.1c-16.6,0.5-31.9,2.5-45.6,6.6l-21.9-13.6
						c-1.3-0.8-1.6-2.5-0.7-3.7l19.8-26.4l42.9-3.7c1.6-0.1,2.9,1.1,3,2.7l0.1,5.1c0.1,3.8,0.7,7.5,1.9,11.1
						C2684.3,2377,2684.9,2380.3,2685,2383.7z"/><polygon fill="#58595b" points="2636.4 2360.6 2636 2360.3 2636.3 2359.9 2636.7 2359.9 2636.7 2360.4 2636.5 2360.4"/><path fill="#58595b" d="M2682.6,2393.4l-0.5-0.1l0.1-0.6l0.5,0.1L2682.6,2393.4z M2682.8,2392.2l-0.5-0.1l0.1-0.6l0.5,0.1
									L2682.8,2392.2z M2683,2391l-0.5-0.1c0-0.2,0.1-0.4,0.1-0.6l0.5,0.1C2683.1,2390.6,2683.1,2390.8,2683,2391z M2683.2,2389.7
									l-0.5-0.1c0-0.2,0-0.4,0.1-0.6l0.5,0C2683.3,2389.3,2683.2,2389.5,2683.2,2389.7z M2683.3,2388.5l-0.5,0c0-0.2,0-0.4,0-0.6
									l0.5,0C2683.4,2388.1,2683.4,2388.3,2683.3,2388.5z M2683.4,2387.2l-0.5,0c0-0.2,0-0.4,0-0.6l0.5,0
									C2683.5,2386.8,2683.4,2387,2683.4,2387.2z M2683.5,2386l-0.5,0c0-0.2,0-0.4,0-0.6h0.5
									C2683.5,2385.6,2683.5,2385.8,2683.5,2386z M2683.5,2384.7l-0.5,0c0-0.2,0-0.4,0-0.6l0.5,0
									C2683.5,2384.3,2683.5,2384.5,2683.5,2384.7z M2683,2383.5c0-0.2,0-0.4,0-0.6l0.5,0c0,0.2,0,0.4,0,0.6L2683,2383.5z
									 M2682.9,2382.3c0-0.2,0-0.4-0.1-0.6l0.5,0c0,0.2,0,0.4,0.1,0.6L2682.9,2382.3z M2682.8,2381.1c0-0.2-0.1-0.4-0.1-0.6
									l0.5-0.1c0,0.2,0.1,0.4,0.1,0.6L2682.8,2381.1z M2682.6,2379.8c0-0.2-0.1-0.4-0.1-0.6l0.5-0.1c0,0.2,0.1,0.4,0.1,0.6
									L2682.6,2379.8z M2682.4,2378.6c0-0.2-0.1-0.4-0.1-0.6l0.5-0.1c0,0.2,0.1,0.4,0.1,0.6L2682.4,2378.6z M2682.1,2377.4
									c0-0.2-0.1-0.4-0.1-0.6l0.4-0.1c0.1,0.2,0.1,0.4,0.1,0.6L2682.1,2377.4z M2681.8,2376.2c-0.1-0.2-0.1-0.4-0.2-0.6l0.4-0.1
									c0.1,0.2,0.1,0.4,0.2,0.6L2681.8,2376.2z M2681.5,2375c-0.1-0.2-0.1-0.4-0.2-0.6l0.4-0.1c0.1,0.2,0.1,0.4,0.2,0.6
									L2681.5,2375z M2681.1,2373.9c-0.1-0.2-0.1-0.4-0.2-0.6l0.4-0.1c0.1,0.2,0.1,0.4,0.2,0.6L2681.1,2373.9z M2680.8,2372.7
									c-0.1-0.2-0.1-0.4-0.2-0.6l0.4-0.1c0.1,0.2,0.1,0.4,0.2,0.6L2680.8,2372.7z M2680.4,2371.4c0-0.2-0.1-0.4-0.1-0.6l0.5-0.1
									c0,0.2,0.1,0.4,0.1,0.6L2680.4,2371.4z M2680.2,2370.2c0-0.2-0.1-0.4-0.1-0.6l0.5-0.1c0,0.2,0.1,0.4,0.1,0.6L2680.2,2370.2z
									 M2679.9,2369c0-0.2-0.1-0.4-0.1-0.6l0.5-0.1c0,0.2,0.1,0.4,0.1,0.6L2679.9,2369z M2679.7,2367.8c0-0.2-0.1-0.4-0.1-0.6
									l0.5-0.1c0,0.2,0.1,0.4,0.1,0.6L2679.7,2367.8z M2679.6,2366.5c0-0.2,0-0.4-0.1-0.6l0.5,0c0,0.2,0,0.4,0.1,0.6
									L2679.6,2366.5z M2679.5,2365.3c0-0.2,0-0.4,0-0.6l0.5,0c0,0.2,0,0.4,0,0.6L2679.5,2365.3z M2679.9,2364l-0.5,0
									c0-0.2,0-0.4,0-0.6l0.5,0C2679.8,2363.6,2679.9,2363.8,2679.9,2364z M2679.8,2362.8l-0.5,0l0-0.6l0.5,0L2679.8,2362.8z
									 M2679.8,2361.5l-0.5,0l0-0.6l0.5,0L2679.8,2361.5z M2679.8,2360.3l-0.5,0l0-0.6l0.5,0L2679.8,2360.3z M2679.8,2359.1
									l-0.5,0l0-0.6l0.5,0L2679.8,2359.1z M2637.3,2360.3l0-0.5l0.6-0.1l0,0.5L2637.3,2360.3z M2638.6,2360.2l0-0.5l0.6-0.1l0,0.5
									L2638.6,2360.2z M2639.8,2360.1l0-0.5l0.6-0.1l0,0.5L2639.8,2360.1z M2641,2360l0-0.5l0.6-0.1l0,0.5L2641,2360z
									 M2642.3,2359.9l0-0.5l0.6-0.1l0,0.5L2642.3,2359.9z M2643.5,2359.8l0-0.5l0.6-0.1l0,0.5L2643.5,2359.8z M2644.8,2359.7
									l0-0.5l0.6-0.1l0,0.5L2644.8,2359.7z M2646,2359.6l0-0.5l0.6-0.1l0,0.5L2646,2359.6z M2647.2,2359.5l0-0.5l0.6-0.1l0,0.5
									L2647.2,2359.5z M2648.5,2359.4l-0.1-0.5l0.6-0.1l0,0.5L2648.5,2359.4z M2679.3,2357.9c0-0.2-0.1-0.3-0.2-0.5l0.4-0.3
									c0.1,0.2,0.2,0.4,0.3,0.7L2679.3,2357.9z M2649.7,2359.3l0-0.5l0.6-0.1l0,0.5L2649.7,2359.3z M2651,2359.2l0-0.5l0.6-0.1
									l0,0.5L2651,2359.2z M2652.3,2359l-0.1-0.5l0.6-0.1l0,0.5L2652.3,2359z M2653.5,2358.9l-0.1-0.5l0.6-0.1l0,0.5
									L2653.5,2358.9z M2654.7,2358.8l-0.1-0.5l0.6-0.1l0,0.5L2654.7,2358.8z M2655.9,2358.7l0-0.5l0.6-0.1l0,0.5L2655.9,2358.7z
									 M2657.2,2358.6l0-0.5l0.6-0.1l0,0.5L2657.2,2358.6z M2658.4,2358.5l0-0.5l0.6-0.1l0,0.5L2658.4,2358.5z M2659.6,2358.4
									l0-0.5l0.6-0.1l0,0.5L2659.6,2358.4z M2660.9,2358.3l0-0.5l0.6-0.1l0,0.5L2660.9,2358.3z M2662.1,2358.2l0-0.5l0.6-0.1
									l0,0.5L2662.1,2358.2z M2663.3,2358.1l0-0.5l0.6-0.1l0,0.5L2663.3,2358.1z M2664.6,2358l0-0.5l0.6-0.1l0,0.5L2664.6,2358z
									 M2665.8,2357.9l0-0.5l0.6-0.1l0,0.5L2665.8,2357.9z M2667.1,2357.8l0-0.5l0.6-0.1l0,0.5L2667.1,2357.8z M2668.3,2357.7
									l0-0.5l0.6-0.1l0,0.5L2668.3,2357.7z M2669.5,2357.6l0-0.5l0.6-0.1l0,0.5L2669.5,2357.6z M2670.8,2357.5l0-0.5l0.6-0.1
									l0,0.5L2670.8,2357.5z M2672,2357.4l0-0.5l0.6-0.1l0,0.5L2672,2357.4z M2678.7,2357c-0.1-0.1-0.3-0.1-0.5-0.2l0.1-0.5
									c0.2,0,0.5,0.1,0.7,0.2L2678.7,2357z M2673.3,2357.3l0-0.5l0.6-0.1l0,0.5L2673.3,2357.3z M2674.5,2357.2l0-0.5l0.6-0.1
									l0,0.5L2674.5,2357.2z M2675.7,2357l0-0.5l0.6-0.1l0,0.5L2675.7,2357z M2677,2356.9l0-0.5l0.6-0.1l0,0.5L2677,2356.9z"/><polygon fill="#58595b" points="2682.5 2394.5 2682 2394.5 2682 2394 2682.1 2394 2682.1 2393.9 2682.6 2394"/><path fill="#58595b" d="M2639.7,2400.6l-0.1-0.4l0.6-0.2l0.1,0.4L2639.7,2400.6z M2640.9,2400.2l-0.1-0.4l0.6-0.2l0.1,0.4
									L2640.9,2400.2z M2642,2399.9l-0.1-0.4l0.6-0.2l0.1,0.4L2642,2399.9z M2643.2,2399.6l-0.1-0.4l0.6-0.2l0.1,0.4
									L2643.2,2399.6z M2644.4,2399.3l-0.1-0.4l0.6-0.1l0.1,0.5L2644.4,2399.3z M2645.6,2399l-0.1-0.4l0.6-0.1l0.1,0.5
									L2645.6,2399z M2646.8,2398.7l-0.1-0.5l0.6-0.1l0.1,0.5L2646.8,2398.7z M2648,2398.5l-0.1-0.5l0.6-0.1l0.1,0.5L2648,2398.5z
									 M2649.2,2398.2l-0.1-0.5l0.6-0.1l0.1,0.5L2649.2,2398.2z M2650.4,2397.9l-0.1-0.5l0.6-0.1l0.1,0.5L2650.4,2397.9z
									 M2651.6,2397.7l-0.1-0.5l0.6-0.1l0.1,0.5L2651.6,2397.7z M2652.8,2397.5l-0.1-0.5l0.6-0.1l0.1,0.5L2652.8,2397.5z
									 M2654,2397.3l-0.1-0.5l0.6-0.1l0.1,0.5L2654,2397.3z M2655.2,2397.1l-0.1-0.5l0.6-0.1l0.1,0.5L2655.2,2397.1z
									 M2656.4,2396.9l-0.1-0.5l0.6-0.1l0.1,0.5L2656.4,2396.9z M2657.6,2396.7l-0.1-0.5l0.6-0.1l0.1,0.5L2657.6,2396.7z
									 M2658.8,2396.5l-0.1-0.5l0.6-0.1l0.1,0.5L2658.8,2396.5z M2660,2396.3l-0.1-0.5l0.6-0.1l0.1,0.5L2660,2396.3z
									 M2661.2,2396.1l-0.1-0.5l0.6-0.1l0.1,0.5L2661.2,2396.1z M2662.4,2396l-0.1-0.5l0.6-0.1l0.1,0.5L2662.4,2396z
									 M2663.7,2395.8l-0.1-0.5l0.6-0.1l0.1,0.5L2663.7,2395.8z M2664.9,2395.7l-0.1-0.5l0.6-0.1l0.1,0.5L2664.9,2395.7z
									 M2666.1,2395.6l0-0.5l0.6-0.1l0,0.5L2666.1,2395.6z M2667.3,2395.4l0-0.5l0.6-0.1l0,0.5L2667.3,2395.4z M2668.5,2395.3
									l0-0.5l0.6-0.1l0,0.5L2668.5,2395.3z M2669.8,2395.2l0-0.5l0.6-0.1l0,0.5L2669.8,2395.2z M2671,2395.1l0-0.5l0.6,0l0,0.5
									L2671,2395.1z M2672.2,2395l0-0.5l0.6,0l0,0.5L2672.2,2395z M2673.4,2394.9l0-0.5l0.6,0l0,0.5L2673.4,2394.9z
									 M2674.6,2394.8l0-0.5l0.6,0l0,0.5L2674.6,2394.8z M2675.9,2394.8l0-0.5l0.6,0l0,0.5L2675.9,2394.8z M2681.4,2394.5l-0.6,0
									l0-0.5l0.6,0L2681.4,2394.5z M2677.1,2394.7l0-0.5l0.6,0l0,0.5L2677.1,2394.7z M2680.1,2394.6l-0.6,0l0-0.5l0.6,0
									L2680.1,2394.6z M2678.3,2394.6l0-0.5l0.6,0l0,0.5L2678.3,2394.6z"/><polygon fill="#58595b" points="2638.7 2400.9 2638.3 2400.6 2638.6 2400.2 2638.8 2400.4 2639 2400.3 2639.1 2400.7"/><path fill="#58595b" d="M2637.8,2400.3l-0.5-0.3l0.2-0.4l0.5,0.3L2637.8,2400.3z M2636.8,2399.7l-0.5-0.3l0.2-0.4l0.5,0.3
									L2636.8,2399.7z M2635.7,2399l-0.5-0.3l0.2-0.4l0.5,0.3L2635.7,2399z M2634.7,2398.4l-0.5-0.3l0.2-0.4l0.5,0.3
									L2634.7,2398.4z M2633.7,2397.7l-0.5-0.3l0.2-0.4l0.5,0.3L2633.7,2397.7z M2632.6,2397.1l-0.5-0.3l0.2-0.4l0.5,0.3
									L2632.6,2397.1z M2631.6,2396.4l-0.5-0.3l0.2-0.4l0.5,0.3L2631.6,2396.4z M2630.6,2395.8l-0.5-0.3l0.2-0.4l0.5,0.3
									L2630.6,2395.8z M2629.5,2395.1l-0.5-0.3l0.2-0.4l0.5,0.3L2629.5,2395.1z M2628.5,2394.5l-0.5-0.3l0.2-0.4l0.5,0.3
									L2628.5,2394.5z M2627.4,2393.8l-0.5-0.3l0.2-0.4l0.5,0.3L2627.4,2393.8z M2626.4,2393.2l-0.5-0.3l0.2-0.4l0.5,0.3
									L2626.4,2393.2z M2625.4,2392.6l-0.5-0.3l0.2-0.4l0.5,0.3L2625.4,2392.6z M2624.3,2391.9l-0.5-0.3l0.2-0.4l0.5,0.3
									L2624.3,2391.9z M2623.3,2391.3l-0.5-0.3l0.2-0.4l0.5,0.3L2623.3,2391.3z M2622.2,2390.6l-0.5-0.3l0.2-0.4l0.5,0.3
									L2622.2,2390.6z M2621.2,2390l-0.5-0.3l0.2-0.4l0.5,0.3L2621.2,2390z M2620.2,2389.3l-0.5-0.3l0.2-0.4l0.5,0.3
									L2620.2,2389.3z M2619.1,2388.7l-0.5-0.3l0.2-0.4l0.5,0.3L2619.1,2388.7z M2618.1,2388l-0.5-0.3l0.2-0.4l0.5,0.3
									L2618.1,2388z M2617,2387.2c-0.1-0.2-0.2-0.3-0.2-0.5c0,0,0-0.1,0-0.1l0.5,0c0,0,0,0.1,0,0.1c0,0.1,0.1,0.3,0.1,0.4
									L2617,2387.2z M2617.4,2386l-0.4-0.2c0-0.1,0.1-0.2,0.2-0.3l0.2-0.2l0.4,0.3l-0.2,0.2
									C2617.4,2385.8,2617.4,2385.9,2617.4,2386z M2618,2385.1l-0.4-0.3l0.4-0.5l0.4,0.3L2618,2385.1z M2618.8,2384.1l-0.4-0.3
									l0.4-0.5l0.4,0.3L2618.8,2384.1z M2619.5,2383.1l-0.4-0.3l0.4-0.5l0.4,0.3L2619.5,2383.1z M2620.2,2382.1l-0.4-0.3l0.4-0.5
									l0.4,0.3L2620.2,2382.1z M2621,2381.1l-0.4-0.3l0.4-0.5l0.4,0.3L2621,2381.1z M2621.7,2380.2l-0.4-0.3l0.4-0.5l0.4,0.3
									L2621.7,2380.2z M2622.4,2379.2l-0.4-0.3l0.4-0.5l0.4,0.3L2622.4,2379.2z M2623.2,2378.2l-0.4-0.3l0.4-0.5l0.4,0.3
									L2623.2,2378.2z M2623.9,2377.2l-0.4-0.3l0.4-0.5l0.4,0.3L2623.9,2377.2z M2624.6,2376.2l-0.4-0.3l0.4-0.5l0.4,0.3
									L2624.6,2376.2z M2625.4,2375.3l-0.4-0.3l0.4-0.5l0.4,0.3L2625.4,2375.3z M2626.1,2374.3l-0.4-0.3l0.4-0.5l0.4,0.3
									L2626.1,2374.3z M2626.8,2373.3l-0.4-0.3l0.4-0.5l0.4,0.3L2626.8,2373.3z M2627.6,2372.3l-0.4-0.3l0.4-0.5l0.4,0.3
									L2627.6,2372.3z M2628.3,2371.3l-0.4-0.3l0.4-0.5l0.4,0.3L2628.3,2371.3z M2629,2370.4l-0.4-0.3l0.4-0.5l0.4,0.3
									L2629,2370.4z M2629.8,2369.4l-0.4-0.3l0.4-0.5l0.4,0.3L2629.8,2369.4z M2630.5,2368.4l-0.4-0.3l0.4-0.5l0.4,0.3
									L2630.5,2368.4z M2631.2,2367.4l-0.4-0.3l0.4-0.5l0.4,0.3L2631.2,2367.4z M2632,2366.4l-0.4-0.3l0.4-0.5l0.4,0.3
									L2632,2366.4z M2632.7,2365.5l-0.4-0.3l0.4-0.5l0.4,0.3L2632.7,2365.5z M2633.4,2364.5l-0.4-0.3l0.4-0.5l0.4,0.3
									L2633.4,2364.5z M2634.2,2363.5l-0.4-0.3l0.4-0.5l0.4,0.3L2634.2,2363.5z M2634.9,2362.5l-0.4-0.3l0.4-0.5l0.4,0.3
									L2634.9,2362.5z M2635.6,2361.5l-0.4-0.3l0.4-0.5l0.4,0.3L2635.6,2361.5z"/><path fill="#e6e7e8" d="M2623.4,2386.5c-1.3,0.2-2.5-0.6-2.7-1.9c-0.2-1.3,0.6-2.5,1.9-2.7c1.3-0.2,2.5,0.6,2.7,1.9
									C2625.6,2385,2624.7,2386.3,2623.4,2386.5z M2622.7,2382.5c-0.9,0.2-1.5,1-1.3,1.9c0.2,0.9,1,1.5,1.9,1.3
									c0.9-0.2,1.5-1,1.3-1.9C2624.5,2383,2623.6,2382.4,2622.7,2382.5z"/><path fill="#e6e7e8" d="M2630.9,2377.1c-1.3,0.2-2.5-0.6-2.7-1.9c-0.2-1.3,0.6-2.5,1.9-2.7c1.3-0.2,2.5,0.6,2.7,1.9
									C2633.1,2375.7,2632.2,2376.9,2630.9,2377.1z M2630.3,2373.2c-0.9,0.2-1.5,1-1.3,1.9c0.2,0.9,1,1.5,1.9,1.3
									c0.9-0.2,1.5-1,1.3-1.9C2632,2373.6,2631.1,2373,2630.3,2373.2z"/><path fill="#231f20" d="M2623.2,2383.8c0.2,0.2,0.2,0.5-0.1,0.7c-0.1,0.1-0.2,0.1-0.2,0.1c-0.2,0-0.4,0-0.5-0.2
									c-0.2-0.2-4.3-5-5-9c0-0.1,0-0.3-0.1-0.4c-0.1-0.4-0.1-0.9,0-1.3c0.1-0.5,0.2-0.9,0.4-1.3c0.8-1.6,2.7-2.4,5.8-2.4
									c-0.4,0.4-0.8,0.7-1.1,1.1c-1.9,0.2-3.2,0.8-3.7,1.8c0,0.1-0.1,0.2-0.1,0.3c-0.1,0.4-0.2,0.7-0.2,1.2c0,0.1,0,0.2,0,0.2
									C2618.5,2377.8,2621.7,2382.2,2623.2,2383.8z"/><path fill="#231f20" d="M2630.5,2374.5c-0.1,0.3-0.4,0.4-0.6,0.4c-2.3-0.6-7.8-1.6-11-0.6c-0.2,0.1-0.4,0.1-0.5,0.2
									c-0.4,0.2-0.7,0.4-1,0.6c-0.1,0.1-0.2,0.2-0.3,0.3c-0.1,0.2-0.3,0.4-0.4,0.6c-0.4,0.3-0.8,0.7-1.3,1c0-0.9,0.3-1.6,0.8-2.2
									c0.3-0.4,0.7-0.7,1.1-1c0.4-0.2,0.8-0.4,1.2-0.5c0.6-0.2,1.3-0.3,2-0.4c4.1-0.5,9.3,0.9,9.6,1
									C2630.4,2373.9,2630.5,2374.2,2630.5,2374.5z"/><g><path fill="#e6e7e8" d="M2638.2,2367.4c-1.3,0.1-2.4-0.9-2.5-2.3c-0.1-1.3,0.9-2.4,2.3-2.5c1.3-0.1,2.4,0.9,2.5,2.3
								C2640.5,2366.2,2639.5,2367.3,2638.2,2367.4z M2638,2363.3c-0.9,0-1.6,0.8-1.6,1.7c0,0.9,0.8,1.6,1.7,1.6
								c0.9,0,1.6-0.8,1.6-1.7C2639.6,2364,2638.9,2363.3,2638,2363.3z"/><path fill="#231f20" d="M2638.5,2365.2c-0.1,0.2-0.5,0.3-0.7,0.2c-1.4-0.8-4.8-2.5-7.4-2.6c-0.9,0-1.7,0.1-2.2,0.5
								c-0.8,0.6-1.3,1.7-1.2,3.3c-0.3,0.3-0.6,0.7-1,1c-0.3-2.5,0.3-4.3,1.6-5.2c1-0.7,2.3-0.8,3.7-0.7c3.3,0.4,6.9,2.5,7.2,2.7
								C2638.6,2364.7,2638.6,2365,2638.5,2365.2z"/></g><path fill="#333" d="M2818.7,1856l9.2,259.7l83.3,203.5l-52.2,16.4l-88.5-157.6c-15.5-27.1-25.7-57-30-87.9l-17.7-127.5
				l-46.7,155.9l11.9,223.6l-60.3,5.3l-27.3-199.3c-4.7-30.1-4.9-60.7-0.8-90.9l31.9-231.9l102.1-17L2818.7,1856z"/><path fill="#f1f2f2" d="M2764.5,1558l-9.9-18.9c-13.5,18.7-29.2,21.9-47.6,7.1l-49.9,78.6l16.8,35.9l3.2,128.9l15.7,61
				c10.9,15.9,28.4,18,49.5,12.2l23.6-16.4l32.3-128.7l0.1-54.2c0,0-10.9-38-12.6-39.9C2783.9,1621.6,2764.5,1558,2764.5,1558z"/><g><path fill="#1e88e5" d="M2674.1,1826.1l-8.4-46.8l147.5-99.8l7.3,212.1c0,2.3-1.9,4.2-4.3,4.1c-14.3-0.5-60.4-4.5-74-33
					c-1.3-2.6,0.1-6.4,0.7-9c0.9-4.5,1.6-9,2.2-13.5c7.1-53.8-6.1-107.4-5-161.3c0.9-43.1,8.8-86.2,13.2-129
					c0.1-0.6,1.2-10.9,1.2-10.9c68,27.6,74.7,51.5,100.3,135.6c1.5,4.9,1.9,10.1,2.4,15.7c2.4,25.4-7.3,54.6-41.3,67.5
					L2674.1,1826.1z"/><path fill="#1e88e5" d="M2457.7,1665.5c0,0,115.9,12.1,122.4,2c15.2-23.4,40.2-66.9,61.8-84.9c6.7-5.6,13.7-10.8,21-15.6
					c6.6-4.3,13.4-8.1,20.5-11.5c3.7-1.8,7.5-3.5,11.4-5c1.4-0.6,11.3-3.8,12.3-4.4c-2.3,11.1-4.6,22.2-6.8,33.3
					c-4.3,20.9-6.1,41.1-4.2,62.5c1.5,17.1,4.1,34.2,4.2,51.4c0.1,20.1-4.4,39.5-6.9,59.3c-4.6,37-1.1,74.7-0.2,111.8
					c0.1,5.3-4.5,9.5-9.8,8.8c-20.9-2.6-38.6-10.9-52.9-25c-1.5-1.5-2.3-3.6-2.1-5.8c2.8-24.6,6.1-49.1,9.6-73.6
					c3.9-26.7,11.7-80.2,7.1-81.2c-4.1-0.9-29.7,31.6-50.9,31.6c-6.6,5.7-150.4-8.3-150.4-8.3L2457.7,1665.5z"/></g><path fill="#eab896" d="M2707.8,1535.6c0,0,26-0.8,37.4-16.7c0,0-10.5,19.1-37.9,23.5L2707.8,1535.6z"/><polygon fill="#1e88e5" points="2730.4 1735.5 2662.6 1777.9 2681.3 1818.9 2816 1757.9 2775.8 1723.2"/><g><path fill="#e0e0e0" d="M2098.9,1459.1l-66.5-45.6c-10.9-7.5-16.7-20.3-15.1-33.4l11.8-98.8c0.2-1.5-0.5-3-1.7-3.9l-21.5-14.9
							c-0.9-0.7-2.1-0.9-3.2-0.6c-1.1,0.3-2.1,0.9-2.6,1.9l-33.6,56.2l-10-6l33.6-56.2c2.2-3.7,6.1-6.4,10.2-7.3
							c4.3-0.9,8.8,0,12.3,2.5l21.5,14.9c4.8,3.3,7.4,9,6.7,14.9l-11.8,98.8c-1,8.8,2.8,17.3,10.1,22.3l66.5,45.6L2098.9,1459.1z"/><path fill="#fb8c00" d="M1897.7,1454.5l-29.8-18.2c-3.9-2.4-5.2-7.5-2.8-11.5l99.6-163.5c2.4-3.9,7.5-5.2,11.5-2.8l29.8,18.2
						c3.9,2.4,5.2,7.5,2.8,11.5l-99.6,163.5C1906.8,1455.6,1901.7,1456.9,1897.7,1454.5z"/><path fill="#834e34" d="M2763,1884.7l-9.8,13.7c-2.2,3-6.4,3.8-9.5,1.7l-688.2-462.5c-3.2-2.2-4-6.6-1.8-9.8l9.8-13.7
					c2.2-3,6.4-3.8,9.5-1.7l688.2,462.5C2764.4,1877.1,2765.2,1881.5,2763,1884.7z"/></g><g><path fill="#e54545" d="M2410.5,2352.7c-63.6,0-115.3-72-115.3-160.6c0-88.5,51.7-160.6,115.3-160.6
							c63.6,0,115.3,72,115.3,160.6C2525.8,2280.6,2474.1,2352.7,2410.5,2352.7z M2410.5,2043.5c-57,0-103.4,66.7-103.4,148.7
							c0,82,46.4,148.7,103.4,148.7s103.4-66.7,103.4-148.7C2513.9,2110.1,2467.5,2043.5,2410.5,2043.5z"/><path fill="#ef5350" d="M2499.7,2420.6h-178.3c-14.6,0-26.4-11.8-26.4-26.4v-204.8h231.2v204.8
						C2526.1,2408.8,2514.3,2420.6,2499.7,2420.6z"/><path fill="#e54545" d="M2363.9,2420.6h-42.5c-14.6,0-26.5-11.8-26.5-26.4v-204.8h42.5v204.8
						C2337.4,2408.8,2349.2,2420.6,2363.9,2420.6z"/><path fill="#ef5350" d="M2526.1,2189.4v204.8c0,14.6-11.8,26.4-26.4,26.4h-135.8c-14.6,0-26.5-11.8-26.5-26.4v-204.8H2526.1z"/><path fill="#414042" d="M2507.4,2205.8c0.4,4.2-3.3,7.5-7.4,6.8l-3.2-0.6c-4.2-0.8-8,2.9-7.4,7.1l1.4,10.1c0.5,3.7-2.3,7.1-6.1,7.2
					l-12.3,0.5c-1.8,0.1-3.5-0.7-4.8-1.9l-13-13.5c-4.2-4.3-11.4-1-10.9,5l0.4,4.2c0.4,3.5-2.2,6.5-5.7,6.9l-8.9,1
					c-3.4,0.4-6.5-2.1-7-5.5l-0.7-4.9c-0.5-3.2-3.2-5.5-6.3-5.5h-12c-3.2,0-5.8,2.3-6.3,5.4l-0.8,5.4c-0.5,3.2-3.3,5.4-6.3,5.4
					c-0.9,0-1.8-0.2-2.6-0.5c-4.2-2-9,1.1-9,5.7v11.8c0,3.5-2.9,6.3-6.3,6.3h-2.9c-3.2,0-6-2.4-6.3-5.7c-0.7-7.2-1.4-19.6,0.3-26.5
					c-0.5,1.2-1,2.7-1.4,3.9c-0.9,2.6-3.3,4.3-6,4.3h-8.6c-3.5,0-6.3-2.9-6.3-6.4v-12.6c0-2.6-1.6-4.9-3.9-5.9
					c-0.8-0.3-1.6-0.5-2.5-0.5h-15.4c-3.6,0-6.5-3-6.3-6.7l1-17h191.9L2507.4,2205.8z"/></g><path fill="#f7c19b" d="M2668.6,1781.6l-14.8-0.6c-2.7,0.2-5.4-0.8-7.4-2.7l-8.5-8.1c-1.6-1.5-4.2-1.5-5.7,0.1l0,0
				c-1.3,1.3-1.6,3.3-0.7,4.9l5.1,9.1c1.4,2.4,0.3,5.5-2.3,6.5l-26.1,10.4c-2,0.8-3.1,3.1-2.3,5.2l0,0c0.7,2,2.9,3.1,5,2.5l15.1-4.6
				l-17,5.3c-2.5,0.8-3.8,3.5-2.8,5.9l0,0c0.9,2.2,3.3,3.3,5.5,2.5l25-8.4l-19.9,6.5c-2.3,0.8-3.6,3.3-2.8,5.6l0,0
				c0.8,2.3,3.3,3.5,5.6,2.7l26.6-9.4l-20.1,7c-2.2,0.8-3.5,3.2-2.7,5.5l0,0c0.7,2.2,3,3.4,5.3,2.9c16.8-4.3,34.5-11.5,52.8-20.2
				L2668.6,1781.6z"/></svg>